# xmcd
#
# Track frame offsets:
#	150
#	17413
#	34661
#	53671
#	76538
#	91935
#	111771
#	127853
#	143286
#	162056
#	177930
#	192124
#	209818
#	226710
#	243081
#	258443
#	275515
#	293341
#	312279
#	326839
#
# Disc length: 4606 seconds
#
# Revision: 0
# Processed by: cddbd v1.5.2PL0 Copyright (c) Steve Scherf et al.
# Submitted via: EasyCDDAExtractor 16.0.6.1
#
DISCID=f511fc14
DTITLE=Συλλογικός δίσκος - Επιτυχίες 2011 2
DYEAR=2010
DGENRE=Νεώτερη
TTITLE0=Onirama - Κλεψύδρα [Θοδ. Μαραντίνης]
TTITLE1=Παπαδόπουλος Γιώργος - Μη σβήνεις τα φώτα [Γ. Παπαδόπουλος-Κ. Ντούμος]
TTITLE2=Ευσταθία - Έρως ο αιμοβόρος [Ευσταθία]
TTITLE3=Ξυδούς Μ.-Πλιάτσικας Φ.-KollektivA - Μαίρη, μη λυπάσαι πια [ελλ. απόδ.
TTITLE3=Μ. Ξυδούς]
TTITLE4=Τριημιτόνιο - Μαρκαδόρος [Δημ. Φάκος]
TTITLE5=Σένα Μαρίνα - Το σ' αγαπώ [Γ. Δημητριάδης-Θ. Γκαραβέλας]
TTITLE6=Ades potes - Μαλαισίνα [Νικόλ. Αδέσποτος]
TTITLE7=Τσανακλίδου Τάνια - Οι μοίρες [Σ. Κραουνάκης-Λ. Νικολακοπούλου]
TTITLE8=Λιδάκης Μανώλης - Δεν ανήκω πουθενά [Χ. Νικολόπουλος-Β. Γεροθόδωρου]
TTITLE9=Γλυκερία-Dilek Koc - Από τα γλυκά σου μάτια (Sallasana)[παραδ.]
TTITLE10=Κετιμέ Αρετή-Ζερβουδάκης Δημήτρης - Βόρειος καϋμός [Δ. Καρράς]
TTITLE11=Καρράς Βασίλης - Σιγά το πράγμα [Χρ. Δάντης-Ν. Σαρρής]
TTITLE12=Μακρόπουλος Νίκος - Δύσκολη νύχτα [Χ. Γαλανός]
TTITLE13=Παπαδοπούλου Πίτσα - Νά 'χε καρδιά η μοναξιά [Παν. Στεργίου-Δημ. Τσάφ
TTITLE13=ας]
TTITLE14=Κυρμιζή Κατερίνα - Αν δε μ' αγαπάς [Κ. Κυρμιζή]
TTITLE15=Γώγος Νίκος - Για πάντα [Ν. Γώγος-Σ. Γούλας]
TTITLE16=Μουζουράκης Πάνος - Θεές γοργόνες [Μ. Τούμπορος]
TTITLE17=Ξυδούς Μάνος-Λιδάκης Μανώλης - Τα θέλεις όλα [Νεόφυτος/Παρίσης-Φιλίππ
TTITLE17=ου/Ξυδούς]
TTITLE18=Παπαγεωργίου Μαρία - Όμορφοι και ηττημένοι [Α. Εμμανουηλίδης]
TTITLE19=Argie - Τον κόσμο αν αλλάξεις [Αρ. Λούλατζης]
EXTD=
EXTT0=
EXTT1=
EXTT2=
EXTT3=
EXTT4=
EXTT5=
EXTT6=
EXTT7=
EXTT8=
EXTT9=
EXTT10=
EXTT11=
EXTT12=
EXTT13=
EXTT14=
EXTT15=
EXTT16=
EXTT17=
EXTT18=
EXTT19=
PLAYORDER=
